# xmcd CD database file
#
# Track frame offsets:
#	150
#	13340
#	29036
#	57802
#	83147
#	104194
#	119837
#	145841
#	164849
#	190907
#	211319
#	239080
#	259956
#	290077
#
# Disc length: 4077 seconds
#
# Revision: 0
# Processed by: cddbd v1.5.2PL0 Copyright (c) Steve Scherf et al.
# Submitted via: CDex 1.51
#
DISCID=eb0feb0e
DTITLE=Felice Reggio Big Band - Mio caro Tenco
DYEAR=2008
DGENRE=Jazz
TTITLE0=Averti tra le braccia
TTITLE1=Il mio regno
TTITLE2=Mi sono innamorato di te
TTITLE3=Com'è difficile
TTITLE4=In qualche parte del mondo
TTITLE5=La mia valle
TTITLE6=Vedrai, vedrai
TTITLE7=Il tempo dei limoni
TTITLE8=Ti ricorderai
TTITLE9=Tu non hai capito niente
TTITLE10=Mai
TTITLE11=Ho capito che ti amo
TTITLE12=un giorno dopo l'altro
TTITLE13=Ciao amore, ciao
EXTD=YEAR: 2008
EXTT0=
EXTT1=
EXTT2=
EXTT3=
EXTT4=
EXTT5=
EXTT6=
EXTT7=
EXTT8=
EXTT9=
EXTT10=
EXTT11=
EXTT12=
EXTT13=
PLAYORDER=
